<svg width="24" height="18" fill="none" xmlns="http://www.w3.org/2000/svg"><path d="M23.543 13.772l-1.29-8.937C21.92 2.537 19.92.833 17.566.833H6.842c-2.356 0-4.356 1.704-4.687 4.002l-1.29 8.937c-.261 1.796 1.147 3.395 2.982 3.395a3.02 3.02 0 002.13-.875l2.676-2.625h7.102l2.663 2.625c.568.56 1.337.875 2.13.875 1.847 0 3.255-1.599 2.995-3.395zM11.02 7.833H8.653v2.334H7.469V7.833H5.102V6.667h2.367V4.333h1.184v2.334h2.367v1.166zm4.735-1.166A1.179 1.179 0 0114.57 5.5a1.18 1.18 0 011.184-1.167c.65 0 1.183.525 1.183 1.167s-.532 1.167-1.183 1.167zm2.367 3.5A1.179 1.179 0 0116.938 9a1.18 1.18 0 011.184-1.167c.65 0 1.183.525 1.183 1.167s-.532 1.167-1.183 1.167z" fill="#2A7AE4"/></svg>